<svg version="1.1" id="Layer_1" xmlns="http://www.w3.org/2000/svg" xmlns:xlink="http://www.w3.org/1999/xlink" x="0px" y="0px"
	 width="100%" viewBox="0 0 1456 264" enable-background="new 0 0 1456 264" xml:space="preserve">
<path fill="#ECA83D" opacity="1.000000" stroke="none" 
	d="
M1000.000000,265.000000 
	C666.666687,265.000000 333.833405,265.000000 1.000089,265.000000 
	C1.000060,177.000046 1.000060,89.000099 1.000030,1.000113 
	C486.333221,1.000075 971.666443,1.000075 1456.999756,1.000038 
	C1456.999756,88.999878 1456.999756,176.999756 1456.999878,264.999817 
	C1304.833374,265.000000 1152.666626,265.000000 1000.000000,265.000000 
M222.733536,175.934647 
	C228.553970,172.552643 234.497589,169.355423 240.088379,165.628906 
	C241.174591,164.904907 240.886383,162.118958 241.232147,160.284119 
	C239.585342,160.288773 237.600693,159.689621 236.344574,160.392471 
	C225.109390,166.678986 213.993210,173.178848 202.874481,179.671509 
	C201.907837,180.235962 200.943665,181.056793 200.366516,181.996841 
	C194.974976,190.778809 194.872757,190.850586 185.317627,188.099808 
	C185.057587,187.825333 184.797546,187.550858 184.819046,186.402023 
	C185.144501,176.932465 185.777481,176.400009 195.074341,175.857452 
	C197.302307,175.727417 199.683640,175.000885 201.633041,173.905487 
	C208.418747,170.092590 215.032776,165.975220 221.738647,162.018677 
	C225.140289,160.011688 227.089890,157.390915 226.969681,153.151459 
	C226.762192,145.833939 226.956772,138.505493 226.953781,131.181625 
	C226.949753,121.270714 232.425613,116.734810 242.193970,118.373932 
	C244.787827,118.809174 247.525238,119.011757 250.119049,118.691612 
	C255.157990,118.069687 258.590027,114.629791 259.073242,109.980988 
	C259.428986,106.558807 258.466614,101.648964 256.151093,99.651741 
	C253.437057,97.310753 248.528503,96.374611 244.738663,96.710655 
	C240.075806,97.124107 235.777313,99.762482 235.541519,105.542946 
	C235.379623,109.511551 233.225189,111.887199 229.997696,113.765640 
	C222.584351,118.080299 215.247849,122.526756 207.855728,126.878212 
	C206.160019,127.876404 204.444519,128.973099 202.589462,129.522552 
	C201.327637,129.896301 199.806824,129.395645 198.401825,129.285995 
	C198.652954,127.920952 198.455841,126.148384 199.248917,125.276062 
	C200.879883,123.482101 202.916153,121.964539 205.006454,120.697586 
	C211.202621,116.942001 217.654282,113.585693 223.672409,109.572914 
	C225.362167,108.446213 226.749863,105.622414 226.821808,103.527130 
	C227.147232,94.050789 226.992462,84.556160 226.901199,75.069168 
	C226.886734,73.564880 226.312729,72.065971 225.975281,70.459198 
	C224.827789,70.734413 224.300171,70.744713 223.897842,70.974464 
	C214.129959,76.552521 204.345825,82.103844 194.660431,87.822212 
	C193.591934,88.453064 193.102066,90.063934 192.277557,91.271538 
	C192.277557,91.271538 192.231766,91.341698 191.445786,91.187256 
	C183.544296,92.526642 181.169220,95.279648 181.171661,103.011482 
	C181.176239,117.457352 181.302185,131.905624 181.058365,146.347504 
	C180.992432,150.253311 180.538925,154.480087 178.968811,157.978577 
	C170.292831,177.310196 155.326447,189.691589 134.609512,196.158112 
	C130.992462,194.567215 127.330673,193.069336 123.772041,191.357040 
	C120.731033,189.893814 118.026489,189.513901 114.889694,191.493057 
	C108.482323,195.535812 101.846573,199.217621 95.291679,203.025345 
	C88.294136,207.090225 81.223282,211.032639 74.295815,215.213074 
	C69.756920,217.952103 65.255531,220.814560 61.095066,224.077820 
	C60.008839,224.929794 60.259621,227.486343 59.896351,229.260025 
	C61.491497,229.171173 63.343781,229.576996 64.635963,228.905304 
	C69.468071,226.393524 74.001053,223.286942 78.903816,220.942017 
	C80.404388,220.224304 83.065849,220.650467 84.625374,221.545959 
	C95.360809,227.710419 105.734344,234.536209 116.662651,240.321228 
	C122.535233,243.429932 129.276688,244.897293 136.449310,246.877441 
	C144.317642,243.932602 152.631897,241.815018 159.958710,237.865585 
	C173.919128,230.340347 187.255173,221.761429 198.505371,210.244736 
	C208.366119,200.150421 216.147995,188.766922 222.733536,175.934647 
M18.577717,171.184677 
	C18.559223,172.298080 18.540730,173.411499 18.244469,175.283539 
	C20.003244,177.431168 21.427628,180.870575 23.596977,181.432159 
	C27.095568,182.337814 31.743727,183.680328 34.369225,179.152390 
	C37.995285,172.898849 42.736336,167.943756 49.408016,164.940201 
	C51.339481,164.070679 53.200554,163.023941 55.026596,161.944595 
	C64.359116,156.428207 73.603333,150.758652 83.013145,145.378265 
	C88.488220,142.247696 92.775047,138.964935 91.984894,131.529480 
	C91.320702,125.279320 91.862862,118.902786 91.838486,112.582329 
	C91.812042,105.727463 89.777306,104.265747 83.790794,107.644691 
	C72.146477,114.217041 60.709652,121.159149 49.230141,128.020462 
	C43.385319,131.513931 41.449741,136.179276 42.357944,143.016266 
	C42.858456,146.784103 43.013390,150.612671 43.059933,154.417099 
	C43.074169,155.580566 42.550934,157.250458 41.691719,157.839890 
	C37.543400,160.685654 33.851185,164.060181 27.775984,162.828186 
	C21.615213,161.578842 18.647980,164.682602 18.577717,171.184677 
M152.028458,119.576088 
	C151.545990,115.779716 151.974716,111.537117 150.381882,108.284515 
	C147.509277,102.418602 141.935699,98.908989 135.382538,99.485031 
	C128.157730,100.120117 121.766556,103.602852 119.533775,111.117401 
	C117.550377,117.792656 117.335327,125.015739 123.231789,129.986832 
	C126.563957,132.796051 127.323303,135.641129 127.132751,139.449478 
	C126.999992,142.102783 127.078140,144.769073 127.125381,147.428436 
	C127.224701,153.019424 130.647644,157.370239 135.214478,157.772354 
	C139.512390,158.150787 143.920120,154.012192 144.569229,148.535843 
	C144.958344,145.252930 144.330704,141.825302 144.907074,138.596039 
	C145.421249,135.715256 146.975510,133.022934 148.045654,130.237793 
	C149.166306,127.321213 150.256989,124.393112 151.283493,120.982941 
	C151.259094,120.652054 151.285614,120.325294 152.028458,119.576088 
M1080.436768,241.773788 
	C1083.936157,241.867813 1083.895264,239.380508 1083.895996,236.976501 
	C1083.905884,207.027237 1083.864990,177.077881 1083.949341,147.128845 
	C1083.962158,142.576004 1081.946777,140.921341 1077.576172,140.977875 
	C1067.594727,141.106995 1057.609009,141.113144 1047.628174,140.966003 
	C1043.616089,140.906876 1041.955811,142.330994 1042.033813,146.505814 
	C1042.232422,157.150757 1042.102905,167.801849 1042.103882,178.450470 
	C1042.105713,197.751114 1042.092896,217.051758 1042.123657,236.352356 
	C1042.128174,239.158218 1041.640137,242.540771 1047.266968,241.529175 
	C1058.053345,241.531937 1068.839844,241.534698 1080.436768,241.773788 
M135.478973,74.627281 
	C141.786652,75.027061 148.101364,75.339867 154.400162,75.849503 
	C161.630539,76.434517 168.890167,76.921791 176.040100,78.060448 
	C177.933365,78.361961 180.366364,80.600746 180.995697,82.472977 
	C182.620956,87.308090 183.818298,88.013519 188.223572,85.288399 
	C193.980576,81.727104 199.745361,78.173523 205.594482,74.767166 
	C215.014862,69.280983 224.585571,64.048798 233.928070,58.435184 
	C237.428284,56.332008 240.418167,54.362396 244.965851,55.601540 
	C249.503143,56.837856 253.999756,53.166744 255.247589,48.296066 
	C256.210297,44.538345 253.503860,40.035412 249.377319,38.529194 
	C245.280441,37.033802 240.175446,39.376659 238.150879,43.595539 
	C237.222992,45.529114 236.515564,47.825359 235.001938,49.150417 
	C233.413605,50.540882 230.979645,50.965397 228.915268,51.812046 
	C228.257599,49.922256 227.100143,48.045498 227.050461,46.139858 
	C226.958420,42.608746 225.711685,40.516953 222.164581,39.699318 
	C218.601456,38.877991 215.071991,37.865433 211.593750,36.733879 
	C208.294861,35.660675 208.309875,33.708534 210.784088,31.692741 
	C212.060165,30.653084 214.148697,30.296988 214.936539,29.044697 
	C216.139191,27.133047 216.532990,24.712542 217.270218,22.508087 
	C215.364120,22.570028 213.084702,21.968649 211.610657,22.798254 
	C199.177628,29.795721 186.888214,37.048527 174.563660,44.238377 
	C169.715988,47.066406 164.807175,49.527603 162.433380,55.463303 
	C161.816895,57.004864 156.772247,57.905254 154.218140,57.268528 
	C150.683731,56.387417 149.706055,52.283710 151.182495,49.421875 
	C152.382812,47.095249 155.546143,44.416611 157.942902,44.313606 
	C167.198135,43.915848 173.589188,38.393631 180.349487,33.336693 
	C180.488098,33.233009 180.319778,32.719021 180.229401,31.558773 
	C165.067001,28.894108 149.753815,26.774530 133.369843,29.539713 
	C131.228668,29.526525 129.066086,29.310318 126.949860,29.533588 
	C114.579330,30.838732 102.135452,31.736217 89.879013,33.757683 
	C76.505943,35.963306 63.323666,39.310013 50.028320,42.012199 
	C46.051086,42.820545 44.735886,44.809875 44.785522,48.902531 
	C44.995388,66.206367 44.984402,83.516418 44.696236,100.818237 
	C44.660778,102.947182 42.940159,105.618950 41.187897,107.030396 
	C37.460548,110.032768 33.057232,112.184486 29.229002,115.079018 
	C27.802227,116.157814 27.207323,118.336807 26.233091,120.014122 
	C26.669352,120.365868 27.105612,120.717613 27.541874,121.069359 
	C29.350899,120.349197 31.283133,119.841721 32.949947,118.876091 
	C50.285767,108.833099 67.613358,98.774353 84.832405,88.533638 
	C86.621979,87.469315 88.520264,85.378830 88.929375,83.458023 
	C89.741043,79.647301 91.858780,78.005058 95.352394,77.676819 
	C107.398926,76.544998 119.451675,75.478455 131.505463,74.426216 
	C132.480225,74.341110 133.481003,74.553848 135.478973,74.627281 
M271.299133,80.500015 
	C271.290161,93.998108 271.275970,107.496208 271.273590,120.994301 
	C271.270813,136.659180 271.281555,152.324066 271.278748,167.988953 
	C271.278229,170.999023 271.404572,173.752243 275.610535,173.711044 
	C285.608612,173.613113 295.613312,173.807510 305.600891,173.463882 
	C307.027802,173.414795 308.876434,171.262833 309.613342,169.662140 
	C310.314545,168.139206 309.840759,166.063736 309.840546,164.231186 
	C309.837219,132.901474 309.878510,101.571564 309.753937,70.242317 
	C309.738342,66.316116 311.075195,64.601799 314.972961,65.072784 
	C320.746643,65.770432 326.604065,66.084953 332.272247,67.286819 
	C348.091766,70.641159 362.320862,77.162430 372.729218,90.089340 
	C381.085175,100.467216 385.528320,112.425056 386.689880,125.772224 
	C388.100891,141.986282 385.930267,157.384964 377.121613,171.298157 
	C363.572479,192.698776 342.381622,200.368393 318.607819,202.090652 
	C304.687256,203.099121 290.643829,202.532715 276.657440,202.433182 
	C272.816498,202.405838 271.191742,203.590179 271.254639,207.548889 
	C271.408173,217.212189 271.429443,226.881485 271.261414,236.544174 
	C271.190460,240.624512 273.066589,241.672958 276.756256,241.615189 
	C286.253021,241.466507 295.754486,241.470322 305.252380,241.571808 
	C328.727905,241.822632 351.345581,238.108444 372.272614,226.900208 
	C397.323517,213.483261 413.750702,192.790771 421.560425,165.685684 
	C425.817535,150.910553 426.408051,135.566498 424.816742,120.147949 
	C422.466431,97.375267 413.870514,77.500114 398.280884,60.724892 
	C378.959167,39.933792 354.340454,29.778105 326.729889,27.184450 
	C310.365112,25.647190 293.777588,26.568180 277.297760,26.111324 
	C272.768585,25.985764 271.145477,27.308065 271.217194,32.006336 
	C271.458893,47.834290 271.303162,63.668320 271.299133,80.500015 
M1189.061646,97.480606 
	C1189.062866,88.814453 1189.065308,80.148308 1189.064941,71.482155 
	C1189.064575,65.125069 1189.140137,65.021767 1195.432861,65.017838 
	C1219.432373,65.002831 1243.432129,64.950333 1267.431152,65.058525 
	C1271.164429,65.075356 1272.916504,64.101501 1272.828369,60.013233 
	C1272.619995,50.351189 1272.637695,40.679501 1272.814941,31.016317 
	C1272.883423,27.284105 1271.483521,26.119816 1267.836548,26.129507 
	C1230.504150,26.228693 1193.171265,26.234594 1155.838867,26.150663 
	C1152.159424,26.142395 1150.900391,27.402859 1150.909790,31.090303 
	C1151.006470,68.922684 1151.016602,106.755516 1150.910400,144.587830 
	C1150.899414,148.524033 1152.230835,149.838257 1156.128296,149.767548 
	C1166.791260,149.574081 1177.460083,149.735367 1188.126343,149.680603 
	C1191.298828,149.664322 1193.050537,150.467270 1191.606812,154.063644 
	C1187.341431,164.688385 1183.096802,175.321655 1178.886841,185.968491 
	C1172.231812,202.798904 1165.635376,219.652451 1158.958862,236.474258 
	C1157.441895,240.296494 1158.781982,241.588089 1162.661621,241.582504 
	C1197.827637,241.531906 1232.993530,241.534470 1268.159546,241.594650 
	C1271.581909,241.600494 1272.871948,240.300842 1272.815308,236.841385 
	C1272.656860,227.177475 1272.615601,217.506363 1272.822266,207.844376 
	C1272.905518,203.948532 1271.636719,202.599899 1267.668091,202.652527 
	C1253.337646,202.842590 1239.002930,202.755310 1224.670166,202.699570 
	C1221.243774,202.686218 1217.818359,202.389923 1214.146484,202.211823 
	C1214.358765,200.523926 1214.282104,199.481766 1214.630371,198.609177 
	C1220.658447,183.503281 1226.792236,168.439240 1232.760254,153.309830 
	C1233.866943,150.504395 1235.590576,149.636108 1238.453369,149.669907 
	C1248.118530,149.784012 1257.790161,149.538101 1267.450195,149.785110 
	C1271.686035,149.893417 1272.927368,148.310425 1272.829712,144.258682 
	C1272.609375,135.097580 1272.586304,125.922234 1272.848022,116.763115 
	C1272.977173,112.247032 1271.582275,110.712944 1266.874390,110.761848 
	C1244.877441,110.990364 1222.876709,110.869614 1200.877319,110.832253 
	C1188.929810,110.811966 1188.929932,110.774590 1189.061646,97.480606 
M562.266296,219.238358 
	C568.072876,223.392197 573.609863,228.006287 579.744202,231.600723 
	C591.269714,238.354126 603.648621,243.401840 617.028198,244.671204 
	C626.706360,245.589417 636.519653,245.294708 646.267517,245.161591 
	C650.068298,245.109695 651.663757,242.666290 650.946350,238.652679 
	C649.455078,230.309052 647.806091,221.958862 647.020996,213.536865 
	C646.555542,208.543137 644.782898,206.959518 639.921387,207.256546 
	C627.067017,208.041885 614.703613,205.740662 603.123291,200.007584 
	C570.978760,184.093781 555.967773,152.412216 562.612976,119.379463 
	C568.911133,88.071655 592.324341,65.222290 626.518677,60.834301 
	C646.943237,58.213322 665.366150,64.006325 681.476746,76.856232 
	C686.736328,81.051315 686.826477,81.223289 691.623718,76.361214 
	C697.472046,70.433868 703.221069,64.406998 708.939636,58.353767 
	C713.165100,53.880993 713.176697,53.138451 708.626892,49.176807 
	C693.132263,35.685200 675.374573,26.972719 655.088196,23.110704 
	C636.115356,19.498768 617.468994,20.761808 599.455505,27.013794 
	C570.053894,37.218304 547.992310,56.374161 534.064636,84.388474 
	C521.521057,109.618805 519.478760,136.191559 526.538879,163.122635 
	C532.314453,185.153915 544.509155,203.694244 562.266296,219.238358 
M1046.500000,26.209940 
	C1012.854492,26.199444 979.208923,26.184290 945.563416,26.182646 
	C939.333008,26.182341 939.061951,26.456221 939.056580,32.612663 
	C939.038330,53.766411 938.915833,74.921570 939.165894,96.072258 
	C939.199829,98.943954 940.476196,102.320175 942.289795,104.563164 
	C950.864929,115.168167 959.816345,125.469322 968.657471,135.858536 
	C971.060730,138.682693 973.546692,141.436508 977.012817,145.381287 
	C977.298584,141.769623 977.580505,139.843567 977.583618,137.917053 
	C977.619995,115.430817 977.706421,92.943810 977.535034,70.458878 
	C977.504150,66.401405 978.533936,64.899101 982.798889,64.943466 
	C1001.285706,65.135796 1019.776733,65.130890 1038.263794,64.948112 
	C1042.660400,64.904648 1044.061523,66.427917 1043.996582,70.756363 
	C1043.789307,84.578232 1043.996948,98.405869 1043.871094,112.229706 
	C1043.834351,116.270859 1045.298462,117.901978 1049.451538,117.803421 
	C1058.274658,117.594040 1067.113770,117.521751 1075.930908,117.831947 
	C1080.574585,117.995316 1082.071777,116.321762 1082.005249,111.798004 
	C1081.809448,98.475624 1081.935669,85.148476 1081.941284,71.823189 
	C1081.944214,65.104042 1081.992310,65.037285 1088.516968,65.026817 
	C1100.509766,65.007584 1112.503296,64.937683 1124.494751,65.066719 
	C1127.894287,65.103294 1129.402710,64.101669 1130.095337,60.484138 
	C1131.875732,51.185463 1134.239746,41.998230 1136.383911,32.769569 
	C1137.737427,26.943989 1137.177246,26.228937 1130.949707,26.225599 
	C1103.133179,26.210690 1075.316528,26.213787 1046.500000,26.209940 
M1428.887329,212.554886 
	C1428.717041,202.136078 1430.577637,202.721344 1418.919067,202.730820 
	C1399.929932,202.746262 1380.939209,202.581543 1361.952759,202.806229 
	C1357.173462,202.862793 1355.782959,201.498795 1355.798462,196.611511 
	C1355.971680,141.976624 1355.883789,87.340950 1355.930786,32.705544 
	C1355.933838,29.058090 1355.927490,26.051743 1350.930542,26.139240 
	C1341.272705,26.308350 1331.609253,26.240793 1321.949219,26.154125 
	C1318.996948,26.127638 1317.723633,27.288336 1317.717529,30.268847 
	C1317.707031,35.418831 1317.370605,40.568611 1317.379639,45.718105 
	C1317.492065,109.176239 1317.684204,172.634308 1317.694946,236.092407 
	C1317.695679,240.673080 1319.414062,241.666611 1323.581421,241.638733 
	C1346.400757,241.486069 1369.221680,241.567764 1392.041992,241.566177 
	C1402.536011,241.565445 1413.030640,241.485947 1423.523560,241.591339 
	C1427.493286,241.631226 1429.143799,240.301102 1428.951782,236.020218 
	C1428.616455,228.540222 1428.879150,221.033417 1428.887329,212.554886 
M938.482422,141.992645 
	C904.353577,101.729607 870.224731,61.466564 836.095825,21.203524 
	C835.660645,21.365875 835.225464,21.528225 834.790283,21.690575 
	C834.579529,23.567934 834.192017,25.444742 834.186157,27.322737 
	C834.139648,42.316231 834.296875,57.311802 834.085876,72.302437 
	C834.025513,76.592522 835.244263,79.966225 837.985413,83.169952 
	C855.292236,103.397369 872.522583,123.690346 889.754639,143.981644 
	C916.135132,175.045273 942.497925,206.124008 968.863953,237.199875 
	C971.263794,240.028275 973.633545,242.882187 976.606018,246.426224 
	C977.099609,244.139404 977.544250,243.032349 977.547058,241.924164 
	C977.590027,224.931732 977.653015,207.938309 977.468506,190.947754 
	C977.447205,188.992905 976.392944,186.700745 975.104431,185.162476 
	C963.139587,170.879059 951.018250,156.726700 938.482422,141.992645 
M752.188721,93.499992 
	C752.188599,114.482323 752.186646,135.464661 752.188782,156.446991 
	C752.191467,183.091187 752.213623,209.735397 752.179199,236.379547 
	C752.175415,239.293198 752.258667,241.672379 756.241333,241.620117 
	C766.231140,241.488968 776.224060,241.540680 786.215271,241.592438 
	C789.589722,241.609924 790.827271,240.195419 790.823608,236.740036 
	C790.751343,168.297958 790.753052,99.855766 790.831604,31.413696 
	C790.835999,27.541973 789.489075,26.040138 785.600037,26.111719 
	C776.444092,26.280233 767.275513,26.407181 758.127502,26.096552 
	C753.511414,25.939808 752.072754,27.472328 752.116455,32.051823 
	C752.308411,52.199612 752.193115,72.350327 752.188721,93.499992 
M455.706268,27.324894 
	C455.528839,28.631004 455.196564,29.937065 455.196167,31.243231 
	C455.174561,99.701675 455.208435,168.160172 455.116364,236.618500 
	C455.110840,240.712753 456.730804,241.737793 460.470612,241.657471 
	C469.128052,241.471558 477.792206,241.608551 486.453583,241.592285 
	C493.751892,241.578568 493.768555,241.562454 493.769257,234.452545 
	C493.775940,167.826309 493.777374,101.200081 493.779358,34.573845 
	C493.779388,33.074802 494.216949,31.370182 493.647919,30.129480 
	C492.958008,28.625145 491.425964,26.414679 490.237000,26.401337 
	C478.940460,26.274563 467.639435,26.549578 455.706268,27.324894 
M709.820801,234.308823 
	C709.824402,198.143951 709.816528,161.979065 709.852417,125.814232 
	C709.855469,122.748878 709.855225,120.290649 705.544983,120.310478 
	C678.880188,120.433121 652.214478,120.395279 625.549194,120.352310 
	C621.772461,120.346230 620.157959,121.898155 620.218811,125.769119 
	C620.362854,134.932739 620.485962,144.108826 620.151367,153.262833 
	C619.978149,158.001587 621.781311,159.324203 626.236938,159.253754 
	C638.899841,159.053574 651.567993,159.179764 664.234070,159.184464 
	C671.257690,159.187073 671.261780,159.193375 671.265625,165.948990 
	C671.278687,189.114502 671.385559,212.280731 671.217590,235.444946 
	C671.184204,240.052292 672.829102,241.697083 677.314575,241.606049 
	C686.143738,241.426834 694.988403,241.324524 703.808655,241.660583 
	C708.789917,241.850372 710.492432,239.895493 709.820801,234.308823 
M855.496887,144.985062 
	C849.033691,137.379196 842.570557,129.773315 836.107422,122.167442 
	C835.670593,122.362473 835.233826,122.557503 834.796997,122.752533 
	C834.584412,124.152390 834.187256,125.552101 834.186157,126.952118 
	C834.157104,163.579208 834.199402,200.206375 834.123962,236.833328 
	C834.116882,240.278076 835.377686,241.639801 838.782715,241.606979 
	C848.438049,241.513947 858.095459,241.510071 867.750732,241.604019 
	C871.278564,241.638351 872.810608,240.401672 872.788208,236.635834 
	C872.659119,214.993256 872.891357,193.346710 872.536255,171.709122 
	C872.475769,168.024231 870.864929,163.894806 868.742798,160.817108 
	C864.987061,155.370132 860.288696,150.573105 855.496887,144.985062 
M87.694984,187.972870 
	C91.923859,185.418854 96.267799,183.029526 100.308517,180.206238 
	C101.457619,179.403351 102.717705,176.681107 102.237991,175.955276 
	C98.527466,170.341187 94.402344,165.001083 90.147369,159.225555 
	C77.517044,166.705017 65.077026,174.071793 51.999256,181.816223 
	C55.861084,188.096954 59.136887,193.802521 62.893311,199.171844 
	C63.539627,200.095688 66.633842,200.322144 67.908768,199.620193 
	C74.400459,196.046021 80.665756,192.060669 87.694984,187.972870 
z"/>
<path fill="#F6F2EB" opacity="1.000000" stroke="none" 
	d="
M271.299255,80.000015 
	C271.303162,63.668320 271.458893,47.834290 271.217194,32.006336 
	C271.145477,27.308065 272.768585,25.985764 277.297760,26.111324 
	C293.777588,26.568180 310.365112,25.647190 326.729889,27.184450 
	C354.340454,29.778105 378.959167,39.933792 398.280884,60.724892 
	C413.870514,77.500114 422.466431,97.375267 424.816742,120.147949 
	C426.408051,135.566498 425.817535,150.910553 421.560425,165.685684 
	C413.750702,192.790771 397.323517,213.483261 372.272614,226.900208 
	C351.345581,238.108444 328.727905,241.822632 305.252380,241.571808 
	C295.754486,241.470322 286.253021,241.466507 276.756256,241.615189 
	C273.066589,241.672958 271.190460,240.624512 271.261414,236.544174 
	C271.429443,226.881485 271.408173,217.212189 271.254639,207.548889 
	C271.191742,203.590179 272.816498,202.405838 276.657440,202.433182 
	C290.643829,202.532715 304.687256,203.099121 318.607819,202.090652 
	C342.381622,200.368393 363.572479,192.698776 377.121613,171.298157 
	C385.930267,157.384964 388.100891,141.986282 386.689880,125.772224 
	C385.528320,112.425056 381.085175,100.467216 372.729218,90.089340 
	C362.320862,77.162430 348.091766,70.641159 332.272247,67.286819 
	C326.604065,66.084953 320.746643,65.770432 314.972961,65.072784 
	C311.075195,64.601799 309.738342,66.316116 309.753937,70.242317 
	C309.878510,101.571564 309.837219,132.901474 309.840546,164.231186 
	C309.840759,166.063736 310.314545,168.139206 309.613342,169.662140 
	C308.876434,171.262833 307.027802,173.414795 305.600891,173.463882 
	C295.613312,173.807510 285.608612,173.613113 275.610535,173.711044 
	C271.404572,173.752243 271.278229,170.999023 271.278748,167.988953 
	C271.281555,152.324066 271.270813,136.659180 271.273590,120.994301 
	C271.275970,107.496208 271.290161,93.998108 271.299255,80.000015 
z"/>
<path fill="#F5F2EC" opacity="1.000000" stroke="none" 
	d="
M1189.061523,97.975441 
	C1188.929932,110.774590 1188.929810,110.811966 1200.877319,110.832253 
	C1222.876709,110.869614 1244.877441,110.990364 1266.874390,110.761848 
	C1271.582275,110.712944 1272.977173,112.247032 1272.848022,116.763115 
	C1272.586304,125.922234 1272.609375,135.097580 1272.829712,144.258682 
	C1272.927368,148.310425 1271.686035,149.893417 1267.450195,149.785110 
	C1257.790161,149.538101 1248.118530,149.784012 1238.453369,149.669907 
	C1235.590576,149.636108 1233.866943,150.504395 1232.760254,153.309830 
	C1226.792236,168.439240 1220.658447,183.503281 1214.630371,198.609177 
	C1214.282104,199.481766 1214.358765,200.523926 1214.146484,202.211823 
	C1217.818359,202.389923 1221.243774,202.686218 1224.670166,202.699570 
	C1239.002930,202.755310 1253.337646,202.842590 1267.668091,202.652527 
	C1271.636719,202.599899 1272.905518,203.948532 1272.822266,207.844376 
	C1272.615601,217.506363 1272.656860,227.177475 1272.815308,236.841385 
	C1272.871948,240.300842 1271.581909,241.600494 1268.159546,241.594650 
	C1232.993530,241.534470 1197.827637,241.531906 1162.661621,241.582504 
	C1158.781982,241.588089 1157.441895,240.296494 1158.958862,236.474258 
	C1165.635376,219.652451 1172.231812,202.798904 1178.886841,185.968491 
	C1183.096802,175.321655 1187.341431,164.688385 1191.606812,154.063644 
	C1193.050537,150.467270 1191.298828,149.664322 1188.126343,149.680603 
	C1177.460083,149.735367 1166.791260,149.574081 1156.128296,149.767548 
	C1152.230835,149.838257 1150.899414,148.524033 1150.910400,144.587830 
	C1151.016602,106.755516 1151.006470,68.922684 1150.909790,31.090303 
	C1150.900391,27.402859 1152.159424,26.142395 1155.838867,26.150663 
	C1193.171265,26.234594 1230.504150,26.228693 1267.836548,26.129507 
	C1271.483521,26.119816 1272.883423,27.284105 1272.814941,31.016317 
	C1272.637695,40.679501 1272.619995,50.351189 1272.828369,60.013233 
	C1272.916504,64.101501 1271.164429,65.075356 1267.431152,65.058525 
	C1243.432129,64.950333 1219.432373,65.002831 1195.432861,65.017838 
	C1189.140137,65.021767 1189.064575,65.125069 1189.064941,71.482155 
	C1189.065308,80.148308 1189.062866,88.814453 1189.061523,97.975441 
z"/>
<path fill="#F5F2EB" opacity="1.000000" stroke="none" 
	d="
M561.999634,219.005310 
	C544.509155,203.694244 532.314453,185.153915 526.538879,163.122635 
	C519.478760,136.191559 521.521057,109.618805 534.064636,84.388474 
	C547.992310,56.374161 570.053894,37.218304 599.455505,27.013794 
	C617.468994,20.761808 636.115356,19.498768 655.088196,23.110704 
	C675.374573,26.972719 693.132263,35.685200 708.626892,49.176807 
	C713.176697,53.138451 713.165100,53.880993 708.939636,58.353767 
	C703.221069,64.406998 697.472046,70.433868 691.623718,76.361214 
	C686.826477,81.223289 686.736328,81.051315 681.476746,76.856232 
	C665.366150,64.006325 646.943237,58.213322 626.518677,60.834301 
	C592.324341,65.222290 568.911133,88.071655 562.612976,119.379463 
	C555.967773,152.412216 570.978760,184.093781 603.123291,200.007584 
	C614.703613,205.740662 627.067017,208.041885 639.921387,207.256546 
	C644.782898,206.959518 646.555542,208.543137 647.020996,213.536865 
	C647.806091,221.958862 649.455078,230.309052 650.946350,238.652679 
	C651.663757,242.666290 650.068298,245.109695 646.267517,245.161591 
	C636.519653,245.294708 626.706360,245.589417 617.028198,244.671204 
	C603.648621,243.401840 591.269714,238.354126 579.744202,231.600723 
	C573.609863,228.006287 568.072876,223.392197 561.999634,219.005310 
z"/>
<path fill="#F6F2EB" opacity="1.000000" stroke="none" 
	d="
M1047.000000,26.210161 
	C1075.316528,26.213787 1103.133179,26.210690 1130.949707,26.225599 
	C1137.177246,26.228937 1137.737427,26.943989 1136.383911,32.769569 
	C1134.239746,41.998230 1131.875732,51.185463 1130.095337,60.484138 
	C1129.402710,64.101669 1127.894287,65.103294 1124.494751,65.066719 
	C1112.503296,64.937683 1100.509766,65.007584 1088.516968,65.026817 
	C1081.992310,65.037285 1081.944214,65.104042 1081.941284,71.823189 
	C1081.935669,85.148476 1081.809448,98.475624 1082.005249,111.798004 
	C1082.071777,116.321762 1080.574585,117.995316 1075.930908,117.831947 
	C1067.113770,117.521751 1058.274658,117.594040 1049.451538,117.803421 
	C1045.298462,117.901978 1043.834351,116.270859 1043.871094,112.229706 
	C1043.996948,98.405869 1043.789307,84.578232 1043.996582,70.756363 
	C1044.061523,66.427917 1042.660400,64.904648 1038.263794,64.948112 
	C1019.776733,65.130890 1001.285706,65.135796 982.798889,64.943466 
	C978.533936,64.899101 977.504150,66.401405 977.535034,70.458878 
	C977.706421,92.943810 977.619995,115.430817 977.583618,137.917053 
	C977.580505,139.843567 977.298584,141.769623 977.012817,145.381287 
	C973.546692,141.436508 971.060730,138.682693 968.657471,135.858536 
	C959.816345,125.469322 950.864929,115.168167 942.289795,104.563164 
	C940.476196,102.320175 939.199829,98.943954 939.165894,96.072258 
	C938.915833,74.921570 939.038330,53.766411 939.056580,32.612663 
	C939.061951,26.456221 939.333008,26.182341 945.563416,26.182646 
	C979.208923,26.184290 1012.854492,26.199444 1047.000000,26.210161 
z"/>
<path fill="#F6F2EC" opacity="1.000000" stroke="none" 
	d="
M1428.889404,213.046356 
	C1428.879150,221.033417 1428.616455,228.540222 1428.951782,236.020218 
	C1429.143799,240.301102 1427.493286,241.631226 1423.523560,241.591339 
	C1413.030640,241.485947 1402.536011,241.565445 1392.041992,241.566177 
	C1369.221680,241.567764 1346.400757,241.486069 1323.581421,241.638733 
	C1319.414062,241.666611 1317.695679,240.673080 1317.694946,236.092407 
	C1317.684204,172.634308 1317.492065,109.176239 1317.379639,45.718105 
	C1317.370605,40.568611 1317.707031,35.418831 1317.717529,30.268847 
	C1317.723633,27.288336 1318.996948,26.127638 1321.949219,26.154125 
	C1331.609253,26.240793 1341.272705,26.308350 1350.930542,26.139240 
	C1355.927490,26.051743 1355.933838,29.058090 1355.930786,32.705544 
	C1355.883789,87.340950 1355.971680,141.976624 1355.798462,196.611511 
	C1355.782959,201.498795 1357.173462,202.862793 1361.952759,202.806229 
	C1380.939209,202.581543 1399.929932,202.746262 1418.919067,202.730820 
	C1430.577637,202.721344 1428.717041,202.136078 1428.889404,213.046356 
z"/>
<path fill="#F5F2EA" opacity="1.000000" stroke="none" 
	d="
M938.712402,142.264481 
	C951.018250,156.726700 963.139587,170.879059 975.104431,185.162476 
	C976.392944,186.700745 977.447205,188.992905 977.468506,190.947754 
	C977.653015,207.938309 977.590027,224.931732 977.547058,241.924164 
	C977.544250,243.032349 977.099609,244.139404 976.606018,246.426224 
	C973.633545,242.882187 971.263794,240.028275 968.863953,237.199875 
	C942.497925,206.124008 916.135132,175.045273 889.754639,143.981644 
	C872.522583,123.690346 855.292236,103.397369 837.985413,83.169952 
	C835.244263,79.966225 834.025513,76.592522 834.085876,72.302437 
	C834.296875,57.311802 834.139648,42.316231 834.186157,27.322737 
	C834.192017,25.444742 834.579529,23.567934 834.790283,21.690575 
	C835.225464,21.528225 835.660645,21.365875 836.095825,21.203524 
	C870.224731,61.466564 904.353577,101.729607 938.712402,142.264481 
z"/>
<path fill="#F5F1E9" opacity="1.000000" stroke="none" 
	d="
M752.188965,92.999985 
	C752.193115,72.350327 752.308411,52.199612 752.116455,32.051823 
	C752.072754,27.472328 753.511414,25.939808 758.127502,26.096552 
	C767.275513,26.407181 776.444092,26.280233 785.600037,26.111719 
	C789.489075,26.040138 790.835999,27.541973 790.831604,31.413696 
	C790.753052,99.855766 790.751343,168.297958 790.823608,236.740036 
	C790.827271,240.195419 789.589722,241.609924 786.215271,241.592438 
	C776.224060,241.540680 766.231140,241.488968 756.241333,241.620117 
	C752.258667,241.672379 752.175415,239.293198 752.179199,236.379547 
	C752.213623,209.735397 752.191467,183.091187 752.188782,156.446991 
	C752.186646,135.464661 752.188599,114.482323 752.188965,92.999985 
z"/>
<path fill="#F4F2E8" opacity="1.000000" stroke="none" 
	d="
M456.022980,27.016960 
	C467.639435,26.549578 478.940460,26.274563 490.237000,26.401337 
	C491.425964,26.414679 492.958008,28.625145 493.647919,30.129480 
	C494.216949,31.370182 493.779388,33.074802 493.779358,34.573845 
	C493.777374,101.200081 493.775940,167.826309 493.769257,234.452545 
	C493.768555,241.562454 493.751892,241.578568 486.453583,241.592285 
	C477.792206,241.608551 469.128052,241.471558 460.470612,241.657471 
	C456.730804,241.737793 455.110840,240.712753 455.116364,236.618500 
	C455.208435,168.160172 455.174561,99.701675 455.196167,31.243231 
	C455.196564,29.937065 455.528839,28.631004 456.022980,27.016960 
z"/>
<path fill="#F6F2EB" opacity="1.000000" stroke="none" 
	d="
M709.818726,234.777130 
	C710.492432,239.895493 708.789917,241.850372 703.808655,241.660583 
	C694.988403,241.324524 686.143738,241.426834 677.314575,241.606049 
	C672.829102,241.697083 671.184204,240.052292 671.217590,235.444946 
	C671.385559,212.280731 671.278687,189.114502 671.265625,165.948990 
	C671.261780,159.193375 671.257690,159.187073 664.234070,159.184464 
	C651.567993,159.179764 638.899841,159.053574 626.236938,159.253754 
	C621.781311,159.324203 619.978149,158.001587 620.151367,153.262833 
	C620.485962,144.108826 620.362854,134.932739 620.218811,125.769119 
	C620.157959,121.898155 621.772461,120.346230 625.549194,120.352310 
	C652.214478,120.395279 678.880188,120.433121 705.544983,120.310478 
	C709.855225,120.290649 709.855469,122.748878 709.852417,125.814232 
	C709.816528,161.979065 709.824402,198.143951 709.818726,234.777130 
z"/>
<path fill="#FBFAF7" opacity="1.000000" stroke="none" 
	d="
M184.537506,187.276382 
	C184.797546,187.550858 185.057587,187.825333 185.564957,188.584610 
	C186.184952,189.735382 186.557617,190.401352 186.979599,191.438904 
	C190.036819,195.901611 192.632797,194.188660 195.518051,191.188599 
	C197.882416,189.656555 201.033340,188.539673 201.642807,186.617111 
	C203.638672,180.321259 208.306702,178.187469 214.306641,176.955475 
	C215.829895,177.323486 216.990402,177.662582 218.029739,178.329620 
	C217.086380,180.094009 216.391098,181.623169 215.420883,182.951492 
	C210.019409,190.346634 204.551285,197.693115 198.711823,205.042450 
	C193.795578,205.164017 191.909088,207.687668 191.820068,212.283508 
	C188.115387,215.389435 184.589417,218.213898 180.656738,221.025269 
	C174.512970,220.889923 171.131607,224.070511 168.845825,229.291245 
	C167.792038,230.064255 166.907959,230.571106 165.837372,230.891388 
	C165.102829,231.138931 164.554764,231.573059 163.816666,232.311035 
	C159.242477,234.716095 155.037964,237.781601 150.422546,238.641403 
	C145.997543,239.465759 140.784470,245.289688 136.331070,237.800415 
	C136.266251,224.564697 136.318848,211.750916 136.769684,198.895416 
	C140.720642,197.860199 144.273346,196.866714 148.232483,195.844971 
	C156.052887,194.283432 163.076492,192.283829 164.196411,182.722687 
	C172.206955,176.664703 176.957916,168.592911 181.405319,159.944336 
	C182.103851,158.840332 182.485458,157.851395 182.902557,156.403534 
	C183.079285,144.678513 183.220520,133.412384 183.628754,121.992943 
	C183.711792,120.512184 183.527847,119.184738 183.304932,117.400734 
	C183.236725,112.530067 182.907852,108.089188 183.298904,103.712631 
	C183.508545,101.366470 184.956604,99.130966 186.212433,96.879257 
	C187.746765,95.981483 188.914490,95.049988 190.385590,94.014015 
	C191.203247,93.053589 191.717514,92.197647 192.231766,91.341705 
	C192.231766,91.341698 192.277557,91.271538 192.658630,91.170113 
	C201.140869,86.740974 209.220184,82.371452 217.361160,78.119972 
	C219.036560,77.245010 221.713608,75.772568 222.567703,76.407280 
	C223.985001,77.460564 224.890808,79.975006 224.969543,81.916229 
	C225.238968,88.559029 225.260895,95.231087 224.911514,101.867470 
	C224.812958,103.739471 223.554413,106.063774 222.080383,107.257973 
	C216.716797,111.603378 211.319977,115.867271 204.343521,117.776802 
	C201.498230,118.555603 199.052734,121.090256 196.644241,123.089737 
	C194.033325,125.257263 193.191681,127.880928 195.580475,130.911224 
	C197.919281,133.878113 200.549057,134.600037 203.783905,132.384766 
	C209.896637,128.198700 215.987823,123.979126 222.176682,119.908348 
	C223.197235,119.237061 224.669357,119.252289 226.161255,118.895638 
	C225.665985,121.442871 225.321091,123.216698 224.626343,125.121208 
	C222.513657,128.028900 221.695206,130.715591 225.037704,133.474121 
	C225.067795,136.390411 225.289047,138.860046 225.045258,141.282913 
	C224.515533,146.547714 223.748413,151.788635 222.645874,157.024506 
	C217.475967,156.524170 213.738617,157.538315 212.779083,163.349060 
	C209.895981,164.850739 206.949997,165.710205 204.735596,167.483322 
	C199.703644,171.512451 194.372391,173.810150 187.796951,174.463196 
	C185.375107,174.703705 182.826752,178.801697 181.433578,181.672775 
	C180.897125,182.778275 183.412582,185.364700 184.537506,187.276382 
z"/>
<path fill="#0F0C0A" opacity="1.000000" stroke="none" 
	d="
M134.469681,74.628181 
	C133.481003,74.553848 132.480225,74.341110 131.505463,74.426216 
	C119.451675,75.478455 107.398926,76.544998 95.352394,77.676819 
	C91.858780,78.005058 89.741043,79.647301 88.929375,83.458023 
	C88.520264,85.378830 86.621979,87.469315 84.832405,88.533638 
	C67.613358,98.774353 50.285767,108.833099 32.949947,118.876091 
	C31.283133,119.841721 29.350899,120.349197 27.541874,121.069359 
	C27.105612,120.717613 26.669352,120.365868 26.233091,120.014122 
	C27.207323,118.336807 27.802227,116.157814 29.229002,115.079018 
	C33.057232,112.184486 37.460548,110.032768 41.187897,107.030396 
	C42.940159,105.618950 44.660778,102.947182 44.696236,100.818237 
	C44.984402,83.516418 44.995388,66.206367 44.785522,48.902531 
	C44.735886,44.809875 46.051086,42.820545 50.028320,42.012199 
	C63.323666,39.310013 76.505943,35.963306 89.879013,33.757683 
	C102.135452,31.736217 114.579330,30.838732 126.949860,29.533588 
	C129.066086,29.310318 131.228668,29.526525 133.834305,29.786161 
	C134.622955,34.294544 135.247314,38.558952 135.212173,42.817921 
	C135.124664,53.422661 134.736908,64.024925 134.469681,74.628181 
z"/>
<path fill="#F5F1E9" opacity="1.000000" stroke="none" 
	d="
M855.740845,145.244568 
	C860.288696,150.573105 864.987061,155.370132 868.742798,160.817108 
	C870.864929,163.894806 872.475769,168.024231 872.536255,171.709122 
	C872.891357,193.346710 872.659119,214.993256 872.788208,236.635834 
	C872.810608,240.401672 871.278564,241.638351 867.750732,241.604019 
	C858.095459,241.510071 848.438049,241.513947 838.782715,241.606979 
	C835.377686,241.639801 834.116882,240.278076 834.123962,236.833328 
	C834.199402,200.206375 834.157104,163.579208 834.186157,126.952118 
	C834.187256,125.552101 834.584412,124.152390 834.796997,122.752533 
	C835.233826,122.557503 835.670593,122.362473 836.107422,122.167442 
	C842.570557,129.773315 849.033691,137.379196 855.740845,145.244568 
z"/>
<path fill="#F5F3EE" opacity="1.000000" stroke="none" 
	d="
M1079.626221,241.537476 
	C1068.839844,241.534698 1058.053345,241.531937 1046.617432,241.192703 
	C1045.627686,239.264954 1044.994385,237.674377 1044.990601,236.082291 
	C1044.919678,206.625854 1044.970337,177.169022 1044.852295,147.712860 
	C1044.837769,144.091965 1045.921143,142.645554 1049.681274,142.732697 
	C1058.330688,142.933182 1066.996948,143.044434 1075.637817,142.711075 
	C1080.236450,142.533646 1081.180542,144.321259 1081.158569,148.522430 
	C1081.006958,177.479034 1081.108521,206.436905 1081.016846,235.394028 
	C1081.010376,237.443283 1080.110718,239.489716 1079.626221,241.537476 
z"/>
<path fill="#EFD7AB" opacity="1.000000" stroke="none" 
	d="
M134.974335,74.627731 
	C134.736908,64.024925 135.124664,53.422661 135.212173,42.817921 
	C135.247314,38.558952 134.622955,34.294544 134.213501,29.655273 
	C149.753815,26.774530 165.067001,28.894108 180.229401,31.558773 
	C180.319778,32.719021 180.488098,33.233009 180.349487,33.336693 
	C173.589188,38.393631 167.198135,43.915848 157.942902,44.313606 
	C155.546143,44.416611 152.382812,47.095249 151.182495,49.421875 
	C149.706055,52.283710 150.683731,56.387417 154.218140,57.268528 
	C156.772247,57.905254 161.816895,57.004864 162.433380,55.463303 
	C164.807175,49.527603 169.715988,47.066406 174.563660,44.238377 
	C186.888214,37.048527 199.177628,29.795721 211.610657,22.798254 
	C213.084702,21.968649 215.364120,22.570028 217.270218,22.508087 
	C216.532990,24.712542 216.139191,27.133047 214.936539,29.044697 
	C214.148697,30.296988 212.060165,30.653084 210.784088,31.692741 
	C208.309875,33.708534 208.294861,35.660675 211.593750,36.733879 
	C215.071991,37.865433 218.601456,38.877991 222.164581,39.699318 
	C225.711685,40.516953 226.958420,42.608746 227.050461,46.139858 
	C227.100143,48.045498 228.257599,49.922256 228.915253,51.812050 
	C230.979645,50.965397 233.413605,50.540882 235.001938,49.150417 
	C236.515564,47.825359 237.222992,45.529114 238.150879,43.595539 
	C240.175446,39.376659 245.280441,37.033802 249.377319,38.529194 
	C253.503860,40.035412 256.210297,44.538345 255.247589,48.296066 
	C253.999756,53.166744 249.503143,56.837856 244.965851,55.601540 
	C240.418167,54.362396 237.428284,56.332008 233.928070,58.435184 
	C224.585571,64.048798 215.014862,69.280983 205.594482,74.767166 
	C199.745361,78.173523 193.980576,81.727104 188.223572,85.288399 
	C183.818298,88.013519 182.620956,87.308090 180.995697,82.472977 
	C180.366364,80.600746 177.933365,78.361961 176.040100,78.060448 
	C168.890167,76.921791 161.630539,76.434517 154.400162,75.849503 
	C148.101364,75.339867 141.786652,75.027061 134.974335,74.627731 
M240.175812,47.088867 
	C238.968735,48.740547 237.761642,50.392223 236.193192,52.538376 
	C238.218796,52.293594 239.630234,52.123032 241.791214,52.121010 
	C242.577103,52.371143 243.346909,52.747803 244.151596,52.850166 
	C248.291916,53.376858 250.459488,51.193954 251.199814,46.576195 
	C251.751373,43.135811 250.313599,41.525764 247.211273,41.089294 
	C242.929123,40.486824 240.516861,42.193535 240.175812,47.088867 
M227.721817,59.010475 
	C230.068314,57.523499 232.414810,56.036522 235.654404,53.983585 
	C231.483871,53.591595 228.713318,53.331192 225.516830,52.466125 
	C225.329147,50.990891 225.141464,49.515659 225.007217,47.301105 
	C224.389297,46.153553 223.771393,45.006004 222.660355,43.264946 
	C220.820999,42.826431 218.964600,42.448570 217.145538,41.937786 
	C212.136017,40.531124 206.237991,40.568989 204.834106,33.925026 
	C207.825684,31.364584 210.817276,28.804140 213.808853,26.243698 
	C208.587524,25.352581 206.002365,29.056635 202.140213,31.833241 
	C196.685211,34.907322 191.096817,37.770008 185.807693,41.106995 
	C178.584991,45.663879 169.787262,48.090569 165.873657,57.140800 
	C163.685165,62.201721 158.232574,61.472923 153.934082,60.691742 
	C151.850281,60.313046 149.274551,57.927731 148.502884,55.860569 
	C145.210129,47.039803 150.927658,39.979462 160.337219,40.688377 
	C165.088654,41.046356 168.263138,38.802326 170.664932,34.719673 
	C161.024292,31.637297 151.655518,30.683521 141.987823,31.702766 
	C138.558807,32.064278 137.877350,33.580597 137.895294,36.489925 
	C137.957901,46.640533 138.006821,56.793190 137.859238,66.942139 
	C137.801895,70.885132 139.488220,72.097023 143.262238,72.148071 
	C152.054596,72.266998 160.877197,72.386673 169.619400,73.220467 
	C175.808548,73.810760 183.674011,72.682289 184.599731,82.359718 
	C184.617020,82.540421 185.137817,82.672958 185.728317,82.993156 
	C199.380875,75.058136 213.186157,67.034348 227.721817,59.010475 
z"/>
<path fill="#191209" opacity="1.000000" stroke="none" 
	d="
M87.352646,188.096069 
	C80.665756,192.060669 74.400459,196.046021 67.908768,199.620193 
	C66.633842,200.322144 63.539627,200.095688 62.893311,199.171844 
	C59.136887,193.802521 55.861084,188.096954 51.999256,181.816223 
	C65.077026,174.071793 77.517044,166.705017 90.147369,159.225555 
	C94.402344,165.001083 98.527466,170.341187 102.237991,175.955276 
	C102.717705,176.681107 101.457619,179.403351 100.308517,180.206238 
	C96.267799,183.029526 91.923859,185.418854 87.352646,188.096069 
z"/>
<path fill="#F1D8A5" opacity="1.000000" stroke="none" 
	d="
M224.976196,124.990524 
	C225.321091,123.216698 225.665985,121.442871 226.161255,118.895638 
	C224.669357,119.252289 223.197235,119.237061 222.176682,119.908348 
	C215.987823,123.979126 209.896637,128.198700 203.783905,132.384766 
	C200.549057,134.600037 197.919281,133.878113 195.580475,130.911224 
	C193.191681,127.880928 194.033325,125.257263 196.644241,123.089737 
	C199.052734,121.090256 201.498230,118.555603 204.343521,117.776802 
	C211.319977,115.867271 216.716797,111.603378 222.080383,107.257973 
	C223.554413,106.063774 224.812958,103.739471 224.911514,101.867470 
	C225.260895,95.231087 225.238968,88.559029 224.969543,81.916229 
	C224.890808,79.975006 223.985001,77.460564 222.567703,76.407280 
	C221.713608,75.772568 219.036560,77.245010 217.361160,78.119972 
	C209.220184,82.371452 201.140869,86.740974 192.691772,91.144485 
	C193.102066,90.063934 193.591934,88.453064 194.660431,87.822212 
	C204.345825,82.103844 214.129959,76.552521 223.897842,70.974464 
	C224.300171,70.744713 224.827789,70.734413 225.975281,70.459198 
	C226.312729,72.065971 226.886734,73.564880 226.901199,75.069168 
	C226.992462,84.556160 227.147232,94.050789 226.821808,103.527130 
	C226.749863,105.622414 225.362167,108.446213 223.672409,109.572914 
	C217.654282,113.585693 211.202621,116.942001 205.006454,120.697586 
	C202.916153,121.964539 200.879883,123.482101 199.248917,125.276062 
	C198.455841,126.148384 198.652954,127.920952 198.401825,129.286011 
	C199.806824,129.395645 201.327637,129.896301 202.589462,129.522552 
	C204.444519,128.973099 206.160019,127.876404 207.855728,126.878212 
	C215.247849,122.526756 222.584351,118.080299 229.997696,113.765640 
	C233.225189,111.887199 235.379623,109.511551 235.541519,105.542946 
	C235.777313,99.762482 240.075806,97.124107 244.738663,96.710655 
	C248.528503,96.374611 253.437057,97.310753 256.151093,99.651741 
	C258.466614,101.648964 259.428986,106.558807 259.073242,109.980988 
	C258.590027,114.629791 255.157990,118.069687 250.119049,118.691612 
	C247.525238,119.011757 244.787827,118.809174 242.193970,118.373932 
	C232.425613,116.734810 226.949753,121.270714 226.953781,131.181625 
	C226.956772,138.505493 226.762192,145.833939 226.969681,153.151459 
	C227.089890,157.390915 225.140289,160.011688 221.738647,162.018677 
	C215.032776,165.975220 208.418747,170.092590 201.633041,173.905487 
	C199.683640,175.000885 197.302307,175.727417 195.074341,175.857452 
	C185.777481,176.400009 185.144501,176.932465 184.678284,186.839203 
	C183.412582,185.364700 180.897125,182.778275 181.433578,181.672775 
	C182.826752,178.801697 185.375107,174.703705 187.796951,174.463196 
	C194.372391,173.810150 199.703644,171.512451 204.735596,167.483322 
	C206.949997,165.710205 209.895981,164.850739 213.152710,163.333450 
	C216.889862,161.073395 219.984100,159.056351 223.078323,157.039307 
	C223.748413,151.788635 224.515533,146.547714 225.045258,141.282913 
	C225.289047,138.860046 225.067795,136.390411 225.065231,133.029449 
	C225.040771,129.741455 225.008484,127.365990 224.976196,124.990524 
M251.274231,104.350784 
	C248.375626,101.693871 245.241409,101.846939 243.194656,104.902344 
	C242.192215,106.398796 242.119202,110.022736 243.185898,111.027863 
	C244.589020,112.349998 247.875610,112.943665 249.730682,112.231430 
	C252.866333,111.027534 253.962814,108.147919 251.274231,104.350784 
M238.490997,107.723915 
	C237.296509,109.994957 236.102036,112.265999 234.940094,114.475151 
	C239.024597,115.397949 242.876022,116.268097 246.727463,117.138245 
	C247.062119,116.787773 247.396774,116.437294 247.731415,116.086815 
	C240.000214,114.313530 238.906036,109.069687 240.802872,102.261826 
	C240.320847,102.439781 239.838821,102.617737 239.356796,102.795692 
	C239.139282,104.198738 238.921768,105.601784 238.490997,107.723915 
z"/>
<path fill="#171009" opacity="1.000000" stroke="none" 
	d="
M151.363052,120.002678 
	C151.285614,120.325294 151.259094,120.652054 151.036224,121.387436 
	C144.636002,128.424194 139.365387,135.367691 141.792953,145.321472 
	C142.048569,146.369476 141.427612,147.605835 141.356430,148.763596 
	C141.121704,152.581558 138.813217,154.875214 135.330994,154.714081 
	C131.692276,154.545685 130.061142,151.581406 129.982208,148.028030 
	C129.889847,143.870026 130.207642,139.680634 129.786118,135.562302 
	C129.594772,133.692886 128.487823,131.420502 127.047638,130.259583 
	C119.941353,124.531288 118.270027,115.858643 123.542374,108.791382 
	C128.618942,101.986572 137.857666,100.845428 144.794327,105.699936 
	C149.927094,109.292000 150.679977,114.549294 151.363052,120.002678 
M129.480042,113.996651 
	C132.090942,116.710693 134.701843,119.424744 137.319733,122.146057 
	C141.673004,119.794609 142.384781,116.219307 141.756210,112.521400 
	C141.070511,108.487320 137.524918,109.013184 134.541977,108.988281 
	C133.209564,108.977158 131.865555,108.904617 130.546326,109.044289 
	C127.007576,109.418938 126.532181,110.961967 129.480042,113.996651 
z"/>
<path fill="#4F391A" opacity="1.000000" stroke="none" 
	d="
M136.371429,198.937134 
	C136.318848,211.750916 136.266251,224.564697 136.054535,238.060120 
	C135.805634,241.529602 135.715866,244.317429 135.626083,247.105255 
	C129.276688,244.897293 122.535233,243.429932 116.662651,240.321228 
	C105.734344,234.536209 95.360809,227.710419 84.625374,221.545959 
	C83.065849,220.650467 80.404388,220.224304 78.903816,220.942017 
	C74.001053,223.286942 69.468071,226.393524 64.635963,228.905304 
	C63.343781,229.576996 61.491497,229.171173 59.896347,229.260025 
	C60.259621,227.486343 60.008839,224.929794 61.095066,224.077820 
	C65.255531,220.814560 69.756920,217.952103 74.295815,215.213074 
	C81.223282,211.032639 88.294136,207.090225 95.291679,203.025345 
	C101.846573,199.217621 108.482323,195.535812 114.889694,191.493057 
	C118.026489,189.513901 120.731033,189.893814 123.772041,191.357040 
	C127.330673,193.069336 130.992462,194.567215 134.932159,196.472198 
	C135.626999,197.503220 135.999222,198.220184 136.371429,198.937134 
M107.843636,232.884933 
	C116.261902,236.273575 124.680168,239.662216 133.843781,243.350876 
	C133.843781,229.011597 133.936859,215.604294 133.699234,202.202850 
	C133.675568,200.868622 131.899796,199.021759 130.490189,198.347931 
	C123.626251,195.066818 117.388016,191.837204 109.478165,198.084274 
	C101.207581,204.616211 91.221733,208.976334 80.614899,215.073822 
	C89.993958,221.266083 98.577133,226.932892 107.843636,232.884933 
z"/>
<path fill="#F0C582" opacity="1.000000" stroke="none" 
	d="
M1080.031494,241.655640 
	C1080.110718,239.489716 1081.010376,237.443283 1081.016846,235.394028 
	C1081.108521,206.436905 1081.006958,177.479034 1081.158569,148.522430 
	C1081.180542,144.321259 1080.236450,142.533646 1075.637817,142.711075 
	C1066.996948,143.044434 1058.330688,142.933182 1049.681274,142.732697 
	C1045.921143,142.645554 1044.837769,144.091965 1044.852295,147.712860 
	C1044.970337,177.169022 1044.919678,206.625854 1044.990601,236.082291 
	C1044.994385,237.674377 1045.627686,239.264954 1046.174072,241.194763 
	C1041.640137,242.540771 1042.128174,239.158218 1042.123657,236.352356 
	C1042.092896,217.051758 1042.105713,197.751114 1042.103882,178.450470 
	C1042.102905,167.801849 1042.232422,157.150757 1042.033813,146.505814 
	C1041.955811,142.330994 1043.616089,140.906876 1047.628174,140.966003 
	C1057.609009,141.113144 1067.594727,141.106995 1077.576172,140.977875 
	C1081.946777,140.921341 1083.962158,142.576004 1083.949341,147.128845 
	C1083.864990,177.077881 1083.905884,207.027237 1083.895996,236.976501 
	C1083.895264,239.380508 1083.936157,241.867813 1080.031494,241.655640 
z"/>
<path fill="#34220E" opacity="1.000000" stroke="none" 
	d="
M18.522238,174.524902 
	C18.540730,173.411499 18.559223,172.298080 18.866428,170.682404 
	C21.539736,166.567062 24.399372,164.244446 29.232224,164.817520 
	C39.324902,166.014297 45.362827,160.336777 45.206604,150.293808 
	C45.173447,148.162292 45.409065,146.026581 45.842663,144.040237 
	C46.745106,146.316101 47.539803,148.413773 47.851330,150.580902 
	C48.227360,153.196716 48.193657,155.871445 48.369839,159.120728 
	C53.095291,156.643051 56.900124,154.783890 60.571499,152.690643 
	C65.823669,149.696136 70.811844,146.195648 76.211327,143.511963 
	C85.649704,138.820816 88.518364,133.729614 86.699120,123.452385 
	C86.439720,121.987007 86.194023,120.507919 86.106178,119.025452 
	C85.779221,113.507736 83.667511,112.480644 78.917282,115.487846 
	C73.462318,118.941193 67.725288,121.999573 62.536514,125.809341 
	C56.733284,130.070282 49.033428,131.962540 45.334587,138.711182 
	C44.653561,134.969055 45.870422,132.732513 48.924057,130.979645 
	C59.110661,125.132225 69.153214,119.034279 79.271034,113.066353 
	C82.013725,111.448601 84.827324,109.951042 88.598907,107.845261 
	C88.598907,118.567497 88.693665,127.966217 88.475502,137.357651 
	C88.449097,138.494339 86.941597,139.939636 85.763199,140.644455 
	C81.645622,143.107162 77.307678,145.199448 73.169205,147.629578 
	C63.205566,153.480286 53.226837,159.313614 43.431351,165.437332 
	C40.436501,167.309570 37.019913,169.600159 35.523422,172.569519 
	C31.181097,181.185638 27.017702,182.330933 20.060850,175.778091 
	C19.580595,175.325729 19.036596,174.941055 18.522238,174.524902 
z"/>
<path fill="#AB7C32" opacity="1.000000" stroke="none" 
	d="
M18.383354,174.904221 
	C19.036596,174.941055 19.580595,175.325729 20.060850,175.778091 
	C27.017702,182.330933 31.181097,181.185638 35.523422,172.569519 
	C37.019913,169.600159 40.436501,167.309570 43.431351,165.437332 
	C53.226837,159.313614 63.205566,153.480286 73.169205,147.629578 
	C77.307678,145.199448 81.645622,143.107162 85.763199,140.644455 
	C86.941597,139.939636 88.449097,138.494339 88.475502,137.357651 
	C88.693665,127.966217 88.598907,118.567497 88.598907,107.845261 
	C84.827324,109.951042 82.013725,111.448601 79.271034,113.066353 
	C69.153214,119.034279 59.110661,125.132225 48.924057,130.979645 
	C45.870422,132.732513 44.653561,134.969055 45.260857,139.107269 
	C45.389053,141.223572 45.454952,142.558197 45.520851,143.892807 
	C45.409065,146.026581 45.173447,148.162292 45.206604,150.293808 
	C45.362827,160.336777 39.324902,166.014297 29.232224,164.817520 
	C24.399372,164.244446 21.539736,166.567062 18.868732,170.348297 
	C18.647980,164.682602 21.615213,161.578842 27.775984,162.828186 
	C33.851185,164.060181 37.543400,160.685654 41.691719,157.839890 
	C42.550934,157.250458 43.074169,155.580566 43.059933,154.417099 
	C43.013390,150.612671 42.858456,146.784103 42.357944,143.016266 
	C41.449741,136.179276 43.385319,131.513931 49.230141,128.020462 
	C60.709652,121.159149 72.146477,114.217041 83.790794,107.644691 
	C89.777306,104.265747 91.812042,105.727463 91.838486,112.582329 
	C91.862862,118.902786 91.320702,125.279320 91.984894,131.529480 
	C92.775047,138.964935 88.488220,142.247696 83.013145,145.378265 
	C73.603333,150.758652 64.359116,156.428207 55.026596,161.944595 
	C53.200554,163.023941 51.339481,164.070679 49.408016,164.940201 
	C42.736336,167.943756 37.995285,172.898849 34.369225,179.152390 
	C31.743727,183.680328 27.095568,182.337814 23.596977,181.432159 
	C21.427628,180.870575 20.003244,177.431168 18.383354,174.904221 
z"/>
<path fill="#A0742F" opacity="1.000000" stroke="none" 
	d="
M151.695755,119.789383 
	C150.679977,114.549294 149.927094,109.292000 144.794327,105.699936 
	C137.857666,100.845428 128.618942,101.986572 123.542374,108.791382 
	C118.270027,115.858643 119.941353,124.531288 127.047638,130.259583 
	C128.487823,131.420502 129.594772,133.692886 129.786118,135.562302 
	C130.207642,139.680634 129.889847,143.870026 129.982208,148.028030 
	C130.061142,151.581406 131.692276,154.545685 135.330994,154.714081 
	C138.813217,154.875214 141.121704,152.581558 141.356430,148.763596 
	C141.427612,147.605835 142.048569,146.369476 141.792953,145.321472 
	C139.365387,135.367691 144.636002,128.424194 151.074860,121.630989 
	C150.256989,124.393112 149.166306,127.321213 148.045654,130.237793 
	C146.975510,133.022934 145.421249,135.715256 144.907074,138.596039 
	C144.330704,141.825302 144.958344,145.252930 144.569229,148.535843 
	C143.920120,154.012192 139.512390,158.150787 135.214478,157.772354 
	C130.647644,157.370239 127.224701,153.019424 127.125381,147.428436 
	C127.078140,144.769073 126.999992,142.102783 127.132751,139.449478 
	C127.323303,135.641129 126.563957,132.796051 123.231789,129.986832 
	C117.335327,125.015739 117.550377,117.792656 119.533775,111.117401 
	C121.766556,103.602852 128.157730,100.120117 135.382538,99.485031 
	C141.935699,98.908989 147.509277,102.418602 150.381882,108.284515 
	C151.974716,111.537117 151.545990,115.779716 151.695755,119.789383 
z"/>
<path fill="#F1D8A5" opacity="1.000000" stroke="none" 
	d="
M136.037689,246.991348 
	C135.715866,244.317429 135.805634,241.529602 136.171936,238.482071 
	C140.784470,245.289688 145.997543,239.465759 150.422546,238.641403 
	C155.037964,237.781601 159.242477,234.716095 164.103638,232.278259 
	C165.061722,231.653732 165.542801,231.365845 166.023865,231.077972 
	C166.907959,230.571106 167.792038,230.064255 169.189789,229.235580 
	C173.490097,226.288620 177.276764,223.663483 181.063446,221.038361 
	C184.589417,218.213898 188.115387,215.389435 192.151123,212.218307 
	C194.809219,209.599823 196.957581,207.328018 199.105942,205.056229 
	C204.551285,197.693115 210.019409,190.346634 215.420883,182.951492 
	C216.391098,181.623169 217.086380,180.094009 218.287521,178.176239 
	C219.660110,177.012299 220.653748,176.329651 221.730286,175.730103 
	C221.813202,175.813202 221.979019,175.979416 221.979019,175.979416 
	C216.147995,188.766922 208.366119,200.150421 198.505371,210.244736 
	C187.255173,221.761429 173.919128,230.340347 159.958710,237.865585 
	C152.631897,241.815018 144.317642,243.932602 136.037689,246.991348 
z"/>
<path fill="#F1D8A5" opacity="1.000000" stroke="none" 
	d="
M136.769684,198.895416 
	C135.999222,198.220184 135.626999,197.503220 135.270905,196.465790 
	C155.326447,189.691589 170.292831,177.310196 178.968811,157.978577 
	C180.538925,154.480087 180.992432,150.253311 181.058365,146.347504 
	C181.302185,131.905624 181.176239,117.457352 181.171661,103.011482 
	C181.169220,95.279648 183.544296,92.526642 191.838776,91.264481 
	C191.717514,92.197647 191.203247,93.053589 190.038849,94.022675 
	C188.207748,95.039055 187.026779,95.942291 185.845795,96.845528 
	C184.956604,99.130966 183.508545,101.366470 183.298904,103.712631 
	C182.907852,108.089188 183.236725,112.530067 183.220947,117.826508 
	C183.237869,119.854637 183.299805,121.000443 183.361755,122.146255 
	C183.220520,133.412384 183.079285,144.678513 182.592331,156.529922 
	C181.860550,158.096603 181.474472,159.078003 181.088409,160.059402 
	C176.957916,168.592911 172.206955,176.664703 163.874405,182.864136 
	C158.166916,187.462601 152.996475,191.667923 147.826035,195.873230 
	C144.273346,196.866714 140.720642,197.860199 136.769684,198.895416 
z"/>
<path fill="#F1D8A5" opacity="1.000000" stroke="none" 
	d="
M186.930267,191.067322 
	C186.557617,190.401352 186.184952,189.735382 185.757050,188.793213 
	C194.872757,190.850586 194.974976,190.778809 200.366516,181.996841 
	C200.943665,181.056793 201.907837,180.235962 202.874481,179.671509 
	C213.993210,173.178848 225.109390,166.678986 236.344574,160.392471 
	C237.600693,159.689621 239.585342,160.288773 241.232147,160.284119 
	C240.886383,162.118958 241.174591,164.904907 240.088379,165.628906 
	C234.497589,169.355423 228.553970,172.552643 222.356277,175.957031 
	C221.979019,175.979416 221.813202,175.813202 221.892029,175.434982 
	C227.102020,171.667145 232.233200,168.277527 237.390228,164.870834 
	C234.377075,163.150803 219.435242,170.876770 213.943893,176.926559 
	C208.306702,178.187469 203.638672,180.321259 201.642807,186.617111 
	C201.033340,188.539673 197.882416,189.656555 195.129822,191.184509 
	C191.886246,191.173508 189.408264,191.120422 186.930267,191.067322 
z"/>
<path fill="#FAEFCF" opacity="1.000000" stroke="none" 
	d="
M214.306641,176.955475 
	C219.435242,170.876770 234.377075,163.150803 237.390228,164.870834 
	C232.233200,168.277527 227.102020,171.667145 221.809113,175.351883 
	C220.653748,176.329651 219.660110,177.012299 218.408691,177.848312 
	C216.990402,177.662582 215.829895,177.323486 214.306641,176.955475 
z"/>
<path fill="#FDF5DD" opacity="1.000000" stroke="none" 
	d="
M148.232483,195.844971 
	C152.996475,191.667923 158.166916,187.462601 163.659363,183.115814 
	C163.076492,192.283829 156.052887,194.283432 148.232483,195.844971 
z"/>
<path fill="#FBF7E2" opacity="1.000000" stroke="none" 
	d="
M222.645874,157.024506 
	C219.984100,159.056351 216.889862,161.073395 213.421997,163.106049 
	C213.738617,157.538315 217.475967,156.524170 222.645874,157.024506 
z"/>
<path fill="#FCF5E4" opacity="1.000000" stroke="none" 
	d="
M180.656738,221.025269 
	C177.276764,223.663483 173.490097,226.288620 169.359482,228.969421 
	C171.131607,224.070511 174.512970,220.889923 180.656738,221.025269 
z"/>
<path fill="#FDF8E3" opacity="1.000000" stroke="none" 
	d="
M198.711823,205.042450 
	C196.957581,207.328018 194.809219,209.599823 192.329834,211.936829 
	C191.909088,207.687668 193.795578,205.164017 198.711823,205.042450 
z"/>
<path fill="#F9E9CF" opacity="1.000000" stroke="none" 
	d="
M186.979599,191.438904 
	C189.408264,191.120422 191.886246,191.173508 194.752472,191.230682 
	C192.632797,194.188660 190.036819,195.901611 186.979599,191.438904 
z"/>
<path fill="#FBF7E2" opacity="1.000000" stroke="none" 
	d="
M224.626343,125.121208 
	C225.008484,127.365990 225.040771,129.741455 225.045532,132.561600 
	C221.695206,130.715591 222.513657,128.028900 224.626343,125.121208 
z"/>
<path fill="#FBF1D3" opacity="1.000000" stroke="none" 
	d="
M186.212433,96.879257 
	C187.026779,95.942291 188.207748,95.039055 189.735474,94.127159 
	C188.914490,95.049988 187.746765,95.981483 186.212433,96.879257 
z"/>
<path fill="#FBF1D3" opacity="1.000000" stroke="none" 
	d="
M183.628754,121.992943 
	C183.299805,121.000443 183.237869,119.854637 183.259903,118.283051 
	C183.527847,119.184738 183.711792,120.512184 183.628754,121.992943 
z"/>
<path fill="#FBF1D3" opacity="1.000000" stroke="none" 
	d="
M181.405319,159.944336 
	C181.474472,159.078003 181.860550,158.096603 182.556854,156.988831 
	C182.485458,157.851395 182.103851,158.840332 181.405319,159.944336 
z"/>
<path fill="#FCF5E4" opacity="1.000000" stroke="none" 
	d="
M165.837387,230.891388 
	C165.542801,231.365845 165.061722,231.653732 164.293671,231.974396 
	C164.554764,231.573059 165.102829,231.138931 165.837387,230.891388 
z"/>
<path fill="#FBF9F6" opacity="1.000000" stroke="none" 
	d="
M224.953766,48.040428 
	C225.141464,49.515659 225.329147,50.990891 225.758789,53.143257 
	C226.330963,55.550442 226.661194,57.280499 226.991425,59.010559 
	C213.186157,67.034348 199.380875,75.058136 185.728317,82.993156 
	C185.137817,82.672958 184.617020,82.540421 184.599731,82.359718 
	C183.674011,72.682289 175.808548,73.810760 169.619400,73.220467 
	C160.877197,72.386673 152.054596,72.266998 143.262238,72.148071 
	C139.488220,72.097023 137.801895,70.885132 137.859238,66.942139 
	C138.006821,56.793190 137.957901,46.640533 137.895294,36.489925 
	C137.877350,33.580597 138.558807,32.064278 141.987823,31.702766 
	C151.655518,30.683521 161.024292,31.637297 170.664932,34.719673 
	C168.263138,38.802326 165.088654,41.046356 160.337219,40.688377 
	C150.927658,39.979462 145.210129,47.039803 148.502884,55.860569 
	C149.274551,57.927731 151.850281,60.313046 153.934082,60.691742 
	C158.232574,61.472923 163.685165,62.201721 165.873657,57.140800 
	C169.787262,48.090569 178.584991,45.663879 185.807693,41.106995 
	C191.096817,37.770008 196.685211,34.907322 202.737091,32.051430 
	C203.632080,32.901981 203.930176,33.534344 204.228271,34.166702 
	C206.237991,40.568989 212.136017,40.531124 217.145538,41.937786 
	C218.964600,42.448570 220.820999,42.826431 222.871552,43.938267 
	C223.706421,45.754536 224.330093,46.897484 224.953766,48.040428 
z"/>
<path fill="#FBF8F5" opacity="1.000000" stroke="none" 
	d="
M240.764816,46.801746 
	C240.516861,42.193535 242.929123,40.486824 247.211273,41.089294 
	C250.313599,41.525764 251.751373,43.135811 251.199814,46.576195 
	C250.459488,51.193954 248.291916,53.376858 244.151596,52.850166 
	C243.346909,52.747803 242.577103,52.371143 241.367081,51.720257 
	C240.883560,49.813583 240.824188,48.307667 240.764816,46.801746 
z"/>
<path fill="#F8EED3" opacity="1.000000" stroke="none" 
	d="
M204.531189,34.045868 
	C203.930176,33.534344 203.632080,32.901981 203.097687,32.004890 
	C206.002365,29.056635 208.587524,25.352581 213.808853,26.243698 
	C210.817276,28.804140 207.825684,31.364584 204.531189,34.045868 
z"/>
<path fill="#FCF3D4" opacity="1.000000" stroke="none" 
	d="
M227.356628,59.010513 
	C226.661194,57.280499 226.330963,55.550442 225.971741,53.445587 
	C228.713318,53.331192 231.483871,53.591595 235.654404,53.983585 
	C232.414810,56.036522 230.068314,57.523499 227.356628,59.010513 
z"/>
<path fill="#FCF3D4" opacity="1.000000" stroke="none" 
	d="
M240.470306,46.945305 
	C240.824188,48.307667 240.883560,49.813583 240.992310,51.635986 
	C239.630234,52.123032 238.218796,52.293594 236.193192,52.538376 
	C237.761642,50.392223 238.968735,48.740547 240.470306,46.945305 
z"/>
<path fill="#FCF3D4" opacity="1.000000" stroke="none" 
	d="
M224.980499,47.670769 
	C224.330093,46.897484 223.706421,45.754536 223.118118,44.235020 
	C223.771393,45.006004 224.389297,46.153553 224.980499,47.670769 
z"/>
<path fill="#ECB151" opacity="1.000000" stroke="none" 
	d="
M251.527313,104.621048 
	C253.962814,108.147919 252.866333,111.027534 249.730682,112.231430 
	C247.875610,112.943665 244.589020,112.349998 243.185898,111.027863 
	C242.119202,110.022736 242.192215,106.398796 243.194656,104.902344 
	C245.241409,101.846939 248.375626,101.693871 251.527313,104.621048 
z"/>
<path fill="#FAF3D5" opacity="1.000000" stroke="none" 
	d="
M238.597626,107.364372 
	C238.921768,105.601784 239.139282,104.198738 239.356796,102.795692 
	C239.838821,102.617737 240.320847,102.439781 240.802872,102.261826 
	C238.906036,109.069687 240.000214,114.313530 247.731415,116.086815 
	C247.396774,116.437294 247.062119,116.787773 246.727463,117.138245 
	C242.876022,116.268097 239.024597,115.397949 234.940094,114.475151 
	C236.102036,112.265999 237.296509,109.994957 238.597626,107.364372 
z"/>
<path fill="#040712" opacity="1.000000" stroke="none" 
	d="
M129.230118,113.743607 
	C126.532181,110.961967 127.007576,109.418938 130.546326,109.044289 
	C131.865555,108.904617 133.209564,108.977158 134.541977,108.988281 
	C137.524918,109.013184 141.070511,108.487320 141.756210,112.521400 
	C142.384781,116.219307 141.673004,119.794609 137.319733,122.146057 
	C134.701843,119.424744 132.090942,116.710693 129.230118,113.743607 
z"/>
<path fill="#070707" opacity="1.000000" stroke="none" 
	d="
M107.501968,232.742310 
	C98.577133,226.932892 89.993958,221.266083 80.614899,215.073822 
	C91.221733,208.976334 101.207581,204.616211 109.478165,198.084274 
	C117.388016,191.837204 123.626251,195.066818 130.490189,198.347931 
	C131.899796,199.021759 133.675568,200.868622 133.699234,202.202850 
	C133.936859,215.604294 133.843781,229.011597 133.843781,243.350876 
	C124.680168,239.662216 116.261902,236.273575 107.501968,232.742310 
z"/>
<path fill="#070508" opacity="1.000000" stroke="none" 
	d="
M45.842667,144.040237 
	C45.454952,142.558197 45.389053,141.223572 45.396881,139.492889 
	C49.033428,131.962540 56.733284,130.070282 62.536514,125.809341 
	C67.725288,121.999573 73.462318,118.941193 78.917282,115.487846 
	C83.667511,112.480644 85.779221,113.507736 86.106178,119.025452 
	C86.194023,120.507919 86.439720,121.987007 86.699120,123.452385 
	C88.518364,133.729614 85.649704,138.820816 76.211327,143.511963 
	C70.811844,146.195648 65.823669,149.696136 60.571499,152.690643 
	C56.900124,154.783890 53.095291,156.643051 48.369839,159.120728 
	C48.193657,155.871445 48.227360,153.196716 47.851330,150.580902 
	C47.539803,148.413773 46.745106,146.316101 45.842667,144.040237 
z"/>
</svg>